# xmcd CD database file
#
# Track frame offsets:
#	150
#	13789
#	26259
#	38608
#	51329
#	64364
#	74396
#	84902
#	97143
#	102897
#	112483
#	125501
#	137253
#	150611
#
# Disc length: 2149 seconds
#
# Revision: 1
# Processed by: cddbd v1.4PL0 Copyright (c) Steve Scherf et al.
# Submitted via: CDex 1.50Beta7
#
DISCID=bc08630e
DTITLE=John Mayall and The Bluesbreakers - A Hard Road
DYEAR=1967
DGENRE=Blues
TTITLE0=A Hard Road
TTITLE1=It's Over
TTITLE2=You Don't Love Me
TTITLE3=The Stumble
TTITLE4=Another Kinda Love
TTITLE5=Hit the Highway
TTITLE6=Leaping Christine
TTITLE7=Dust My Blues
TTITLE8=There's Always Work
TTITLE9=The Same Way
TTITLE10=The Supernatural
TTITLE11=Top of the Hill
TTITLE12=Someday After Awhile (You'll Be Sorry)
TTITLE13=Living Alone
EXTD=YEAR: 1967
EXTT0=
EXTT1=
EXTT2=
EXTT3=
EXTT4=
EXTT5=
EXTT6=
EXTT7=
EXTT8=
EXTT9=
EXTT10=
EXTT11=
EXTT12=
EXTT13=
PLAYORDER=
